<?xml version="1.0" encoding="utf-8"?>
<!-- Generator: Adobe Illustrator 23.0.3, SVG Export Plug-In . SVG Version: 6.00 Build 0)  -->
<svg version="1.1" id="Calque_1" xmlns="http://www.w3.org/2000/svg" xmlns:xlink="http://www.w3.org/1999/xlink" x="0px" y="0px"
	 viewBox="0 0 589 107.4" style="enable-background:new 0 0 589 107.4;" xml:space="preserve">
<style type="text/css">
	.st0{enable-background:new    ;}
	.st1{fill:#1E293B;}
</style>
<g class="st0">
	<path class="st1" d="M64.4,56.4c1,0,1.5,1.1,1.5,3.4c0,4.7-2.2,9.3-6.6,13.8c-4.4,4.4-9.8,6.7-16.1,6.8c-4.5,0-9.6-1.8-15.5-5.3
		c-4.2,4.5-9.4,6.7-15.7,6.7c-4.1,0-7.2-1-9.1-3.1C1,76.5,0,73.8,0,70.4c0-3.4,1.3-6,3.8-7.7s5.7-2.5,9.5-2.5c2.1,0,4,0.1,5.8,0.3
		c0-8.1,0.9-16.1,2.7-23.8c-2.2-1.1-4.1-2.4-5.6-3.8c-1.6-1.4-2.4-2.5-2.4-3.3c0-2.1,0.5-3.2,1.4-3.2c1.3,0,2.7,0.4,4.1,1.1
		c1.4,0.8,3,1.4,4.6,1.8c4.1-11.9,9.8-19.6,17-23.1c2.5-1.2,5.2-1.8,8-1.8c10.5,0,15.8,4.4,15.8,13.3c0,5.1-1.9,9.4-5.7,13.1
		c-5.3,5.1-13.3,7.7-24,8C34.4,44.4,34,51,34,58.7c0,1.9-0.2,4-0.7,6.3c2.3,1.2,4.6,2.3,6.8,3.3c2.2,1,4.9,1.5,8.1,1.5
		c1.7,0,3.3-0.7,4.9-2.1c1.6-1.4,3.2-2.9,4.6-4.6c1.4-1.7,2.7-3.2,3.9-4.6C62.7,57.1,63.7,56.4,64.4,56.4z M9.7,71.1
		c0.1,1.9,1.4,2.8,3.9,2.8c2.5,0,4.1-1.5,4.8-4.4c-1.9-0.9-3.4-1.4-4.6-1.4C11.1,68.1,9.8,69.1,9.7,71.1z M48.8,14.2
		c-5.6,0-9.7,5.3-12.2,16c4.8-0.4,8.9-1.8,12.1-4c3.3-2.3,5-4.6,5-7C53.7,15.9,52.1,14.2,48.8,14.2z"/>
	<path class="st1" d="M73.2,80.3c-6.7,0-10-6.2-10-18.7c0-6.8,0.8-13,2.5-18.5c2.6-8.5,5.5-12.8,8.8-12.8c1.9,0,3.5,1.3,4.6,3.9
		c0.9,2,1.4,4,1.3,5.9c0,2.7-0.8,7.4-2.4,14.1c-1.5,5.9-2.3,9.5-2.3,10.9c0,1.4,0.4,2.4,1,2.9c0.7,0.5,1.5,0.8,2.5,0.8
		c1,0,2.2-0.6,3.7-1.9c1.5-1.3,2.9-2.7,4.4-4.2c1.5-1.5,2.8-2.9,4-4.2c1.2-1.3,2.1-1.9,2.6-1.9c0.9,0,1.4,1.1,1.4,3.4
		c0,4.7-2.4,9.2-7.1,13.7C83.5,78.2,78.5,80.4,73.2,80.3z M77.3,22.2c-1.8-2.7-2.7-5.5-2.7-8.6c0-3.1,0.5-5.6,1.5-7.6
		c1-2,1.9-3.5,2.8-4.5c0.9-1,1.9-1.5,3-1.5c1.9,0,3.6,1.4,5.1,4.2c1.5,2.8,2.3,5.1,2.3,6.9c0,3.5-1.2,6.2-3.6,8.2
		C83.1,21.2,80.4,22.2,77.3,22.2z"/>
	<path class="st1" d="M94.7,74.5c-0.8-1.8-1.3-3.8-1.7-6.2c-0.3-2.4-0.5-5.7-0.5-9.9c0-4.3,0.8-10,2.4-17.3h-4.5
		c-0.8,0-1.2-0.3-1.2-1c0-1.6,0.1-2.9,0.5-3.9c0.3-1,1-2.2,2.1-3.6h2.4c0.9,0,1.9,0,3-0.1c3.2-10.3,6.5-15.4,9.8-15.4
		c2.7,0.1,4.5,1.8,5.6,5.1c0.3,0.9,0.6,1.9,0.9,3l-4.1,7.2c4.7,0.1,7.6,0.2,8.8,0.2c1.2,0,1.9,0.1,2,0.4c0.1,0.2,0.2,0.6,0.2,1
		c0,1.2-0.3,2.7-0.9,4.5c-0.6,1.8-1.2,2.7-2,2.6l-10-0.5c-1.4,8.1-2.1,14.9-2.1,20.2c0,5.3,0.8,8,2.3,8c1.3,0,3.6-1,6.9-3.1
		c3.3-2.1,5.7-4.1,7.2-6.1c1.5-1.9,2.7-2.9,3.6-2.9c0.9,0,1.4,1.1,1.4,3.4c0,2.3-0.8,4.6-2.4,7c-1.6,2.4-3.6,4.5-6,6.5
		c-2.4,2-5.1,3.6-8.1,4.9c-3,1.3-5.5,1.9-7.8,1.9c-2.2,0-3.9-0.5-5-1.5C96.5,77.7,95.5,76.3,94.7,74.5z"/>
	<path class="st1" d="M126.4,74.5c-0.8-1.8-1.3-3.8-1.7-6.2c-0.3-2.4-0.5-5.7-0.5-9.9c0-4.3,0.8-10,2.4-17.3h-4.5
		c-0.8,0-1.2-0.3-1.2-1c0-1.6,0.1-2.9,0.5-3.9c0.3-1,1-2.2,2.1-3.6h2.4c0.9,0,1.9,0,3-0.1c3.2-10.3,6.5-15.4,9.8-15.4
		c2.7,0.1,4.5,1.8,5.6,5.1c0.3,0.9,0.6,1.9,0.9,3l-4.1,7.2c4.7,0.1,7.6,0.2,8.8,0.2c1.2,0,1.9,0.1,2,0.4c0.1,0.2,0.2,0.6,0.2,1
		c0,1.2-0.3,2.7-0.9,4.5c-0.6,1.8-1.2,2.7-2,2.6l-10-0.5c-1.4,8.1-2.1,14.9-2.1,20.2c0,5.3,0.8,8,2.3,8c1.3,0,3.6-1,6.9-3.1
		c3.3-2.1,5.7-4.1,7.2-6.1c1.5-1.9,2.7-2.9,3.6-2.9c0.9,0,1.4,1.1,1.4,3.4c0,2.3-0.8,4.6-2.4,7c-1.6,2.4-3.6,4.5-6,6.5
		c-2.4,2-5.1,3.6-8.1,4.9c-3,1.3-5.5,1.9-7.8,1.9c-2.2,0-3.9-0.5-5-1.5C128.2,77.7,127.2,76.3,126.4,74.5z"/>
	<path class="st1" d="M176,80.3c-9.5,0.1-16-3.5-19.5-10.7c-1.2-2.5-1.8-5.7-1.8-9.5c0-3.8,0.3-7.9,1-12.3c1.3-8.7,3.9-16.7,7.7-24
		c1.9-3.7,4.1-6.9,6.5-9.6c5.3-5.9,11.1-8.8,17.6-8.7c2.9,0,5.1,0.8,6.8,2.3c1.6,1.6,2.5,3.8,2.5,6.8c0,2.9-0.9,5.9-2.6,8.9
		c-1.7,3-3.9,6-6.6,9.2c-2.7,3.2-5.7,6.5-9,9.9c-3.3,3.5-6.5,7.2-9.6,11.3v4c0,3.7,0.8,6.5,2.4,8.2c1.6,1.7,3.5,2.6,5.6,2.6
		c5.7,0,10.8-2.8,15.2-8.5c1.8-2.3,3.2-3.5,4.1-3.5c0.9,0,1.4,1.1,1.4,3.4c0,2.3-0.6,4.6-1.9,7c-1.2,2.4-2.8,4.5-4.8,6.5
		c-2,2-4.3,3.6-6.9,4.9C181.4,79.7,178.7,80.3,176,80.3z M181.4,26.6c1.4-1.7,2.5-3.3,3.3-4.7c0.8-1.4,1.2-2.9,1.2-4.4
		s-0.5-2.3-1.6-2.3c-2.3,0-4.9,2.4-7.8,7.2c-2.8,4.8-5,11.1-6.4,18.9c2.3-3.5,4.4-6.4,6.3-8.7C178.3,30.4,180,28.3,181.4,26.6z"/>
	<path class="st1" d="M215,69.1c5.2,0,10.2-2.1,15.1-6.2c1.8-1.5,3.3-3,4.4-4.3c1.1-1.3,2-2,2.6-2c0.9,0,1.4,0.9,1.4,2.8
		c0,1.9-0.5,4-1.5,6.3s-2.7,4.5-5,6.8c-5.7,5.4-13.6,8.1-23.6,8.1c-7.9,0-13.3-2.9-16.2-8.6c-1-2-1.5-4.9-1.5-8.6
		c0-3.7,0.7-7.6,2.2-11.7c1.5-4,3.4-7.5,5.8-10.5c2.4-2.9,5.3-5.2,8.5-6.8c3.2-1.6,6.6-2.5,10.3-2.5c3.6,0,6.4,0.9,8.4,2.7
		c2,1.8,3,4.1,3,7c0,2.9-0.7,5.2-2.1,7c-1.4,1.8-3.3,3.4-5.6,4.6c-2.3,1.2-4.8,2.3-7.5,3.3c-2.8,1-5.5,2-8.1,3.3v2.5
		c0.1,2.4,1.1,4.1,3,5.1C210.3,68.5,212.5,69,215,69.1z M213.3,40.9c-3.5,0-5.9,4-7.2,12.1c1.4-0.9,2.7-1.8,4-2.5
		c1.2-0.7,2.3-1.4,3.3-2.1c2-1.5,3-3.1,3.1-5C216.4,41.7,215.4,40.9,213.3,40.9z"/>
	<path class="st1" d="M275.4,29.1c0-1.2,0.4-1.8,1.3-1.8c1.3,0,2.7,0.3,4.1,0.9c1.4,0.6,2.9,1,4.5,1.3c5.3-11.4,11.5-18.8,18.4-22.3
		c2.4-1.2,4.8-1.8,7.2-1.8c4.5,0.1,7.5,1.1,9,3.2c1.6,2.1,2.3,4.7,2.3,8c-0.1,6.2-2.7,11.1-8,14.7c-5.3,3.6-11.7,5.5-19.3,6
		c-1.9,5.1-3.4,10.6-4.5,16.4c2.6-1,5.9-1.5,10-1.5c0.5,4.2,1.5,7.2,2.8,9c1.3,1.8,2.8,2.7,4.5,2.7c1.6,0,3-0.4,4.1-1.2
		c1.1-0.8,2.1-1.7,2.9-2.7c0.8-1,1.5-1.9,2.1-2.7c0.6-0.8,1.1-1.2,1.7-1.2c1.1,0,1.7,1,1.7,3c0,4-1,7.3-3,10c-2,2.6-5.1,4-9.2,4
		c-6.5,0-11.1-1.7-13.8-5.1c1.5,14.7,2.2,23.4,2.2,26.2c0,5-1.6,8.6-4.7,10.7c-2.6,1.8-5.9,2.7-10,2.7c-4,0-6.8-0.9-8.4-2.8
		c-1.6-1.8-2.4-4-2.4-6.6c0-16.1,2.3-32.2,6.9-48.5c1.5-5.2,3.1-10.1,5-14.6C277.9,32.8,275.4,30.8,275.4,29.1z M287.6,97.8
		c0.7-1.2,1-2.5,1-3.9c0-4.6-0.6-11.7-1.9-21.2c-1.7,6.9-2.8,13.7-3.4,20.5c-0.1,1.5-0.2,2.4-0.2,2.7c0,2.5,0.8,3.8,2.3,3.8
		C286.2,99.7,286.9,99.1,287.6,97.8z M310.1,15.3c-1.3,0-3.2,1.3-5.5,3.8c-2.3,2.5-4.6,6.4-7,11.6c4.9-2.1,8.1-3.8,9.6-4.9
		c3.1-2.2,4.7-4.8,4.7-7.9C311.9,16.2,311.3,15.3,310.1,15.3z"/>
	<path class="st1" d="M355.6,71.5c-5.3,6.2-11.6,9.3-19,9.3c-7.4,0-12.9-1.9-16.5-5.6c-3.7-3.8-5.5-8.5-5.4-14.1
		c-0.1-7.9,2.4-14.8,7.5-20.5c5.1-5.7,11.7-8.6,19.9-8.6c3.7,0,6.7,0.5,9,1.4c3.9,1.6,5.9,3.1,5.9,4.5c0,1.1-2.8,1.6-8.3,1.6
		c-5.5,0-10.1,1.9-13.8,5.7c-3.7,3.8-5.6,8.5-5.6,14.3c0,3,0.9,5.5,2.7,7.5c1.8,2,4.3,3,7.5,3c3.2,0,5.9-0.7,8-2
		c-4.7-3.2-7.1-7.8-7.1-13.9c-0.1-3.2,1.1-6.1,3.5-8.8c2.4-2.6,5.4-4,9.1-4c3.7,0,6.3,1,7.9,3c1.6,2.1,2.4,4.7,2.4,8
		c0,3.2-0.8,6.6-2.3,10.3h0.6c2.9-0.1,5.5-1.1,7.6-3.1c0.8-0.8,1.5-1.5,2-2.1c0.6-0.6,1.1-0.9,1.8-0.9c0.9,0,1.4,1.1,1.4,3.3
		c0,4.1-1.2,7.1-3.6,9.1c-2.4,2-5,3-7.9,3C360,72.1,357.6,71.9,355.6,71.5z M354.7,59.9c1.1-2.4,1.7-4.7,1.7-7
		c0-2.3-0.7-3.4-2.2-3.4c-0.6,0-1.1,0.4-1.5,1.3c-0.4,0.9-0.6,1.7-0.6,2.5C352.1,56,353,58.2,354.7,59.9z"/>
	<path class="st1" d="M409.9,71.5c-5.3,6.2-11.6,9.3-18.9,9.3c-7.4,0-12.9-1.9-16.6-5.6c-3.7-3.8-5.5-8.5-5.4-14.1
		c-0.1-7.9,2.4-14.8,7.5-20.5c5.1-5.7,11.7-8.6,19.9-8.6c3.7,0,6.7,0.5,9,1.4c3.9,1.6,5.9,3.1,5.9,4.5c0,1.1-2.8,1.6-8.3,1.6
		c-5.5,0-10.1,1.9-13.8,5.7c-3.7,3.8-5.5,8.5-5.5,14.3c0,3,0.9,5.5,2.6,7.5c1.8,2,4.3,3,7.5,3c3.2,0,5.9-0.7,8-2
		c-4.7-3.2-7.1-7.8-7.1-13.9c-0.1-3.2,1.1-6.1,3.4-8.8c2.4-2.6,5.4-4,9.1-4c3.7,0,6.4,1,8,3c1.6,2.1,2.4,4.7,2.4,8
		c0,3.2-0.8,6.6-2.3,10.3h0.6c2.9-0.1,5.5-1.1,7.6-3.1c0.8-0.8,1.5-1.5,2-2.1s1.2-0.9,1.8-0.9c0.9,0,1.4,1.1,1.4,3.3
		c0,4.1-1.2,7.1-3.6,9.1c-2.4,2-5.1,3-8,3C414.3,72.1,411.9,71.9,409.9,71.5z M409,59.9c1.1-2.4,1.7-4.7,1.7-7
		c0-2.3-0.7-3.4-2.2-3.4c-0.6,0-1.1,0.4-1.5,1.3c-0.4,0.9-0.6,1.7-0.6,2.5C406.4,56,407.3,58.2,409,59.9z"/>
	<path class="st1" d="M485.2,56.4c1.2,0,1.8,1.5,1.8,4.6c0,1.7-0.7,3.7-2.1,6c-1.4,2.4-3.2,4.5-5.5,6.5c-2.2,2-4.7,3.6-7.5,4.9
		c-2.7,1.3-5.4,1.9-8,1.9c-3.7,0-6.1-3-7.2-9c-4,6.3-9.9,9.5-17.8,9.5c-4.8,0-8.6-1.5-11.5-4.4c-2.9-2.9-4.3-6.5-4.2-10.7
		c0-11.3,3.8-20.3,11.3-26.8c5.2-4.5,10.6-6.7,16.2-6.7c2.5,0,4.5,0.2,6,0.6l2.3,0.6c2.7-12.9,5.9-21.5,9.5-25.8
		c1.2-1.5,2.4-2.2,3.6-2.2c1.9,0,3.7,1.3,5.4,4c1.5,2.2,2.2,4.1,2.2,5.7c0,1.6-0.2,3.2-0.7,4.7c-0.5,1.5-1,3-1.8,4.3
		c-0.7,1.3-1.5,2.6-2.3,3.8c-0.9,1.2-1.7,2.5-2.6,3.8c-1.9,7.2-3.4,15.3-4.3,24.2c-0.3,2.5-0.4,4.6-0.4,6.1c0,4.6,0.8,6.9,2.3,6.9
		c1.7,0,5.9-3.5,12.6-10.4C483.8,57.1,484.7,56.4,485.2,56.4z M438,62.4c0,5.1,1.9,7.7,5.7,7.7c2.3,0,4.5-0.9,6.9-2.6
		c2.3-1.7,4.1-4.6,5.3-8.7c0.1-6,0.8-12.6,2.1-19.8c-5.3,1.1-10,3.7-14,7.8C440,50.9,438,56.1,438,62.4z"/>
	<path class="st1" d="M494,80.3c-6.7,0-10-6.2-10-18.7c0-6.8,0.8-13,2.5-18.5c2.6-8.5,5.5-12.8,8.8-12.8c1.9,0,3.5,1.3,4.6,3.9
		c0.9,2,1.4,4,1.3,5.9c0,2.7-0.8,7.4-2.4,14.1c-1.5,5.9-2.3,9.5-2.3,10.9c0,1.4,0.4,2.4,1,2.9c0.7,0.5,1.5,0.8,2.5,0.8
		c1,0,2.2-0.6,3.7-1.9c1.5-1.3,2.9-2.7,4.4-4.2c1.5-1.5,2.8-2.9,4-4.2c1.2-1.3,2.1-1.9,2.6-1.9c0.9,0,1.4,1.1,1.4,3.4
		c0,4.7-2.4,9.2-7.1,13.7C504.3,78.2,499.3,80.4,494,80.3z M498.1,22.2c-1.8-2.7-2.7-5.5-2.7-8.6c0-3.1,0.5-5.6,1.5-7.6
		c1-2,1.9-3.5,2.8-4.5c0.9-1,1.9-1.5,3-1.5c1.9,0,3.6,1.4,5.1,4.2c1.5,2.8,2.3,5.1,2.3,6.9c0,3.5-1.2,6.2-3.6,8.2
		C503.9,21.2,501.2,22.2,498.1,22.2z"/>
	<path class="st1" d="M534.4,69.1c5.2,0,10.2-2.1,15.1-6.2c1.8-1.5,3.3-3,4.4-4.3c1.1-1.3,2-2,2.6-2c0.9,0,1.4,0.9,1.4,2.8
		c0,1.9-0.5,4-1.5,6.3s-2.7,4.5-5,6.8c-5.7,5.4-13.6,8.1-23.6,8.1c-7.9,0-13.3-2.9-16.2-8.6c-1-2-1.5-4.9-1.5-8.6
		c0-3.7,0.7-7.6,2.2-11.7c1.5-4,3.4-7.5,5.8-10.5c2.4-2.9,5.3-5.2,8.5-6.8c3.2-1.6,6.6-2.5,10.3-2.5c3.6,0,6.4,0.9,8.4,2.7
		c2,1.8,2.9,4.1,2.9,7c0,2.9-0.7,5.2-2.1,7c-1.4,1.8-3.3,3.4-5.5,4.6c-2.3,1.2-4.8,2.3-7.6,3.3c-2.8,1-5.5,2-8.1,3.3v2.5
		c0.1,2.4,1.1,4.1,3,5.1C529.7,68.5,531.9,69,534.4,69.1z M532.7,40.9c-3.5,0-5.9,4-7.2,12.1c1.4-0.9,2.7-1.8,3.9-2.5
		c1.2-0.7,2.3-1.4,3.3-2.1c2-1.5,3-3.1,3.1-5C535.8,41.7,534.8,40.9,532.7,40.9z"/>
	<path class="st1" d="M575.7,31.5c4.5,0,7.8,0.8,10,2.5c2.2,1.7,3.3,4.1,3.3,7.3c0,3.2-1,5.9-2.9,8.1c-1.9,2.2-4.2,3.8-7,4.8
		c1.9,2,3.7,4,5.3,6.1c1.6,2.1,2.3,4.2,2.3,6.5c0,4.5-1.8,7.9-5.3,10.4c-3.5,2.4-8.5,3.6-14.8,3.6c-6.3,0-11-1.3-14.2-3.8
		s-4.7-5.3-4.7-8.5c0-3.2,0.8-6,2.4-8.6c1.6-2.6,3.3-3.9,5-3.9c1.1,0,1.8,0.4,2.3,1.2c0.5,0.8,1.3,3,2.6,6.6
		c0.5,1.3,1.2,2.6,2.3,3.8c2.5,2.7,6.4,4.1,11.7,4.1c-0.8-2.5-2.1-4.7-3.8-6.5c-1.8-1.8-3.5-3.6-5.3-5.4c-1.7-1.7-3.3-3.6-4.6-5.5
		c-1.3-2-2-4.3-2-7c0-4.8,1.8-8.7,5.4-11.7C567.3,32.9,571.2,31.6,575.7,31.5z M575.3,50.1c2.7-2.9,4-5.2,4-6.9
		c0-0.8-0.3-1.5-0.8-2.2c-0.6-0.6-1.4-1-2.4-1c-1.1,0-2.1,0.1-3.1,0.4c-1,0.3-1.8,0.5-2.3,0.6C570.6,43.6,572.2,46.6,575.3,50.1z"/>
</g>
</svg>
